<?xml version="1.0" standalone="no"?>
<!DOCTYPE svg PUBLIC "-//W3C//DTD SVG 1.1//EN" "http://www.w3.org/Graphics/SVG/1.1/DTD/svg11.dtd">
<svg width="167mm" height="165mm" viewBox="-77 -59 167 165" xmlns="http://www.w3.org/2000/svg" version="1.1">
<title>OpenSCAD Model</title>
<path d="
M -76.5559,69.7906 L -76.3204,75.0931 L -76.1827,78.1948 L -75.8636,78.4981 L -74.1985,80.0811 L -63.7146,90.0482
 L -62.3522,90.6155 L -58.4215,91.2386 L -58.0743,91.2031 L -57.7253,91.1443 L -57.4539,91.587 L -57.0031,92.3223
 L -48.7698,101.165 L -46.6046,103.49 L -46.6046,103.49 L -46.3379,103.777 L -46.2537,103.867 L -34.6934,105.183
 L -32.466,105.437 L -31.7186,105.218 L -30.5769,104.884 L -29.8913,104.684 L -26.98,102.385 L -26.096,101.687
 L -24.1398,99.214 L -20.7012,94.8663 L -20.7012,94.8663 L -20.5849,94.7192 L -20.5849,94.7191 L -20.4813,94.5881
 L -20.4813,94.5881 L -20.9975,92.0829 L -21.4741,89.7703 L -17.3251,85.685 L -17.3249,85.6848 L -13.75,82.1646
 L -12.6497,81.5516 L -4.14724,76.8144 L -0.0102522,76.7451 L 1.34492,76.7223 L 1.70488,78.2994 L 1.71264,78.3334
 L 1.73436,78.3606 L 2.89276,79.8132 L 4.56669,80.6193 L 4.59809,80.6345 L 6.49086,80.6345 L 6.52226,80.6193
 L 8.19619,79.8132 L 9.35458,78.3606 L 9.37631,78.3334 L 9.38407,78.2994 L 9.77629,76.581 L 17.5009,76.4515
 L 22.0557,76.4515 L 22.1836,76.4515 L 39.1376,76.4515 L 41.1375,73.6167 L 44.9805,68.1693 L 50.9209,68.1693
 L 58.0587,68.6065 L 62.105,68.8543 L 62.2902,68.8358 L 62.301,68.8348 L 73.1306,67.7566 L 79.4777,67.1248
 L 79.665,67.1061 L 83.8457,62.3325 L 89.0715,56.3654 L 89.0345,55.6467 L 89.0049,55.0717 L 88.9746,54.7893
 L 88.9746,54.7893 L 88.9746,54.7893 L 88.1072,46.6979 L 87.3558,39.6891 L 87.3558,39.6891 L 87.0941,35.9153
 L 87.0941,35.9151 L 86.8222,31.9947 L 86.4733,21.7559 L 86.4733,21.7555 L 86.2841,16.2026 L 86.2841,7.79744
 L 86.4733,2.24445 L 86.4733,2.24409 L 86.4906,1.73706 L 86.8701,1.2612 L 86.8918,1.23396 L 86.8995,1.19999
 L 87.313,-0.611356 L 86.8995,-2.4227 L 86.8918,-2.45667 L 86.8701,-2.48392 L 86.6441,-2.76731 L 86.8222,-7.99471
 L 87.0941,-11.9151 L 87.0941,-11.9153 L 87.3558,-15.6891 L 87.3558,-15.6891 L 88.1072,-22.6979 L 88.9746,-30.7893
 L 88.9746,-30.7893 L 88.9746,-30.7893 L 89.0049,-31.0717 L 89.0345,-31.6467 L 89.0715,-32.3654 L 83.8457,-38.3325
 L 79.665,-43.1061 L 79.4777,-43.1248 L 73.1306,-43.7566 L 62.301,-44.8348 L 62.2902,-44.8358 L 62.105,-44.8543
 L 58.0587,-44.6065 L 50.9209,-44.1693 L 40.552,-44.1693 L 40.3486,-44.1693 L 35.0846,-44.1693 L 33.9439,-46.7565
 L 30.3845,-54.8299 L 30.0798,-55.3175 L 29.5476,-56.1693 L 23.4344,-56.1693 L 23.2088,-56.4522 L 21.5348,-57.2583
 L 21.5034,-57.2734 L 19.6107,-57.2734 L 19.5793,-57.2583 L 17.9053,-56.4522 L 17.6797,-56.1693 L 12.9819,-56.1693
 L 10.0062,-58.1042 L 8.64516,-58.9893 L -2.29021,-58.9893 L -8.25381,-58.9893 L -8.40341,-58.9893 L -9.82343,-58.4202
 L -14.2702,-56.6382 L -25.9664,-55.7838 L -29.4172,-55.5318 L -30.8168,-56.4343 L -30.8168,-56.4344 L -31.1844,-56.6714
 L -31.1844,-56.6714 L -31.2757,-56.6647 L -31.2769,-56.6647 L -44.0049,-55.7349 L -47.2411,-55.4985 L -48.3852,-54.5705
 L -52.6845,-51.0832 L -63.1845,-40.5832 L -63.6161,-36.5573 L -64.7302,-36.5573 L -64.7616,-36.5422 L -66.4355,-35.7361
 L -67.5939,-34.2835 L -67.6156,-34.2562 L -67.6234,-34.2223 L -68.0368,-32.4109 L -67.6234,-30.5996 L -67.6156,-30.5656
 L -67.5939,-30.5384 L -66.4355,-29.0858 L -64.7616,-28.2797 L -64.7302,-28.2645 L -64.5051,-28.2645 L -64.5261,-28.0688
 L -64.8831,-24.7387 L -65.1423,-21.0006 L -65.2252,-19.8064 L -65.378,-15.3198 L -65.8045,-2.80312 L -65.8045,2.80312
 L -65.378,15.3198 L -65.2252,19.8064 L -65.1423,21.0006 L -64.8831,24.7387 L -64.5261,28.0688 L -63.4315,38.2789
 L -64.839,39.2671 L -68.7527,42.0149 L -68.9054,42.122 L -68.9054,42.122 L -69.0424,42.2182 L -69.8679,43.0607
 L -70.7875,43.9992 L -68.3914,50.0982 L -67.0376,53.5443 L -70.7729,57.8864 L -73.4021,63.2985 L -76.3659,69.3994
 z
M -72.3422,72.4845 L -64.6514,57.4355 L -64.3908,57.1326 L -64.3721,57.1108 L -62.7836,55.2643 L -61.9004,55.6896
 L -61.869,55.7047 L -59.9762,55.7047 L -59.9448,55.6896 L -58.2709,54.8835 L -57.1125,53.4309 L -57.0908,53.4037
 L -57.083,53.3697 L -56.6696,51.5583 L -57.083,49.747 L -57.0908,49.713 L -57.1125,49.6858 L -58.2709,48.2332
 L -59.9448,47.4271 L -59.9762,47.412 L -61.869,47.412 L -61.9004,47.4271 L -63.5743,48.2332 L -64.3684,49.229
 L -65.9891,45.4763 L -63.6327,43.8219 L -59.4901,40.9134 L -59.3994,40.8497 L -59.2005,40.7101 L -58.0021,39.4871
 L -57.4554,38.9291 L -57.4554,38.9291 L -57.6685,38.6784 L -57.7778,38.5498 L -58.7618,37.7845 L -59.4918,37.2167
 L -59.5639,36.5442 L -60.8831,24.2386 L -60.9617,23.105 L -61.2252,19.3064 L -61.6714,6.21124 L -61.8045,2.30312
 L -61.8045,-2.30312 L -61.6714,-6.21124 L -61.2252,-19.3064 L -60.9617,-23.105 L -60.8831,-24.2386 L -60.2441,-30.1993
 L -59.9737,-30.5384 L -59.952,-30.5656 L -59.9442,-30.5996 L -59.5308,-32.4109 L -59.8548,-33.8305 L -59.5639,-36.5442
 L -59.1845,-40.0832 L -52.1845,-47.0832 L -47.0275,-49.8445 L -45.7712,-50.5172 L -32.9278,-51.4553 L -30.6242,-51.6236
 L -29.2018,-50.7064 L -29.2018,-50.7063 L -28.857,-50.484 L -16.0307,-51.4209 L -12.8002,-51.6568 L -11.2314,-52.3343
 L -7.47972,-53.9544 L 4.07779,-53.9544 L 8.60293,-53.9544 L 11.4769,-52.0856 L 12.9397,-51.1344 L 16.8427,-51.1344
 L 17.9053,-49.8019 L 19.5793,-48.9958 L 19.6107,-48.9807 L 21.5034,-48.9807 L 21.5348,-48.9958 L 23.2088,-49.8019
 L 24.2714,-51.1344 L 24.9176,-51.1344 L 29.2589,-51.1344 L 31.9346,-45.0655 L 33.9591,-40.4738 L 34.5223,-39.5725
 L 34.796,-39.1344 L 46.7806,-39.1344 L 51.6796,-39.1344 L 51.6796,-39.1344 L 51.8446,-39.1344 L 55.4416,-39.3723
 L 62.1397,-39.8155 L 68.1693,-39.2152 L 78.7048,-38.1664 L 78.7048,-38.1664 L 82.7604,-33.5355 L 84.9115,-31.0792
 L 84.0306,-22.8621 L 83.3933,-16.9171 L 83.1829,-13.8831 L 82.8489,-9.06684 L 82.8438,-8.91809 L 82.832,-8.57112
 L 82.832,-8.57112 L 82.702,-4.75774 L 82.1136,-4.75774 L 82.0822,-4.74262 L 80.4082,-3.9365 L 79.2498,-2.48392
 L 79.2281,-2.45667 L 79.2204,-2.4227 L 78.8069,-0.611356 L 79.2204,1.19999 L 79.2281,1.23396 L 79.2498,1.2612
 L 80.4082,2.71379 L 82.0822,3.51991 L 82.1136,3.53503 L 82.4195,3.53503 L 82.3689,5.01936 L 82.2695,7.93643
 L 82.2682,8.01441 L 82.262,8.3777 L 82.262,15.6223 L 82.2682,15.9856 L 82.2695,16.0636 L 82.3689,18.9806
 L 82.832,32.5711 L 82.832,32.5711 L 82.8438,32.9181 L 82.8489,33.0668 L 83.1829,37.8831 L 83.3933,40.9171
 L 84.0306,46.8621 L 84.9115,55.0792 L 82.7604,57.5355 L 78.7048,62.1664 L 78.7048,62.1664 L 68.1693,63.2152
 L 62.1397,63.8155 L 55.4416,63.3723 L 51.8446,63.1344 L 51.6796,63.1344 L 51.6796,63.1344 L 46.7806,63.1344
 L 34.796,63.1344 L 34.5223,63.5725 L 33.9591,64.4738 L 33.9752,64.624 L 34.0827,65.6273 L 34.3212,67.8515
 L 34.3212,67.8515 L 34.3553,68.1693 L 34.5066,68.1693 L 38.6895,68.1693 L 38.3272,68.8285 L 37.0527,71.1474
 L 33.3681,71.1474 L 17.1063,71.1474 L 12.3474,71.318 L -3.19638,71.8751 L -3.51859,71.8874 L -3.61724,71.8911
 L -7.42244,73.9301 L -7.42269,73.9303 L -15.3751,78.1916 L -16.7578,79.1551 L -16.7579,79.1551 L -17.4195,79.6161
 L -21.4721,83.6066 L -21.4723,83.6068 L -26.0634,88.1275 L -26.1835,88.2458 L -26.3154,88.3757 L -25.8587,90.7689
 L -25.4428,92.9488 L -29.853,98.5251 L -37.126,100.852 L -37.126,100.852 L -42.5758,100.309 L -42.5758,100.309
 L -45.3949,97.3235 L -54.3571,87.8308 L -54.8228,87.6335 L -60.4903,86.1126 L -63.1931,83.5547 L -72.2573,74.9763
 z
M -65.4838,-32.4109 L -64.6338,-33.8832 L -62.9338,-33.8832 L -62.0838,-32.4109 L -62.9338,-30.9387 L -64.6338,-30.9387
 z
M -62.6226,51.5583 L -61.7726,50.0861 L -60.0726,50.0861 L -59.2226,51.5583 L -60.0726,53.0306 L -61.7726,53.0306
 z
M 3.84447,76.4881 L 4.69447,75.0158 L 6.39447,75.0158 L 7.24447,76.4881 L 6.39447,77.9603 L 4.69447,77.9603
 z
M 18.857,-53.127 L 19.707,-54.5993 L 21.407,-54.5993 L 22.257,-53.127 L 21.407,-51.6548 L 19.707,-51.6548
 z
M 81.36,-0.611356 L 82.21,-2.0836 L 83.91,-2.0836 L 84.76,-0.611356 L 83.91,0.860886 L 82.21,0.860886
 z
" stroke="black" fill="lightgray" stroke-width="0.5"/>
</svg>
