  0
SECTION
  2
BLOCKS
  0
ENDSEC
  0
SECTION
  2
ENTITIES
  0
LINE
  8
0
 10
-76.5559
 20
-69.7906
 11
-76.3204
 21
-75.0931
  0
LINE
  8
0
 10
-76.3204
 20
-75.0931
 11
-76.1827
 21
-78.1948
  0
LINE
  8
0
 10
-76.1827
 20
-78.1948
 11
-75.8636
 21
-78.4981
  0
LINE
  8
0
 10
-75.8636
 20
-78.4981
 11
-74.1985
 21
-80.0811
  0
LINE
  8
0
 10
-74.1985
 20
-80.0811
 11
-63.7146
 21
-90.0482
  0
LINE
  8
0
 10
-63.7146
 20
-90.0482
 11
-62.3522
 21
-90.6155
  0
LINE
  8
0
 10
-62.3522
 20
-90.6155
 11
-58.4215
 21
-91.2386
  0
LINE
  8
0
 10
-58.4215
 20
-91.2386
 11
-58.0743
 21
-91.2031
  0
LINE
  8
0
 10
-58.0743
 20
-91.2031
 11
-57.7253
 21
-91.1443
  0
LINE
  8
0
 10
-57.7253
 20
-91.1443
 11
-57.4539
 21
-91.587
  0
LINE
  8
0
 10
-57.4539
 20
-91.587
 11
-57.0031
 21
-92.3223
  0
LINE
  8
0
 10
-57.0031
 20
-92.3223
 11
-48.7698
 21
-101.165
  0
LINE
  8
0
 10
-48.7698
 20
-101.165
 11
-46.6046
 21
-103.49
  0
LINE
  8
0
 10
-46.6046
 20
-103.49
 11
-46.6046
 21
-103.49
  0
LINE
  8
0
 10
-46.6046
 20
-103.49
 11
-46.3379
 21
-103.777
  0
LINE
  8
0
 10
-46.3379
 20
-103.777
 11
-46.2537
 21
-103.867
  0
LINE
  8
0
 10
-46.2537
 20
-103.867
 11
-34.6934
 21
-105.183
  0
LINE
  8
0
 10
-34.6934
 20
-105.183
 11
-32.466
 21
-105.437
  0
LINE
  8
0
 10
-32.466
 20
-105.437
 11
-31.7186
 21
-105.218
  0
LINE
  8
0
 10
-31.7186
 20
-105.218
 11
-30.5769
 21
-104.884
  0
LINE
  8
0
 10
-30.5769
 20
-104.884
 11
-29.8913
 21
-104.684
  0
LINE
  8
0
 10
-29.8913
 20
-104.684
 11
-26.98
 21
-102.385
  0
LINE
  8
0
 10
-26.98
 20
-102.385
 11
-26.096
 21
-101.687
  0
LINE
  8
0
 10
-26.096
 20
-101.687
 11
-24.1398
 21
-99.214
  0
LINE
  8
0
 10
-24.1398
 20
-99.214
 11
-20.7012
 21
-94.8663
  0
LINE
  8
0
 10
-20.7012
 20
-94.8663
 11
-20.7012
 21
-94.8663
  0
LINE
  8
0
 10
-20.7012
 20
-94.8663
 11
-20.5849
 21
-94.7192
  0
LINE
  8
0
 10
-20.5849
 20
-94.7192
 11
-20.5849
 21
-94.7191
  0
LINE
  8
0
 10
-20.5849
 20
-94.7191
 11
-20.4813
 21
-94.5881
  0
LINE
  8
0
 10
-20.4813
 20
-94.5881
 11
-20.4813
 21
-94.5881
  0
LINE
  8
0
 10
-20.4813
 20
-94.5881
 11
-20.9975
 21
-92.0829
  0
LINE
  8
0
 10
-20.9975
 20
-92.0829
 11
-21.4741
 21
-89.7703
  0
LINE
  8
0
 10
-21.4741
 20
-89.7703
 11
-17.3251
 21
-85.685
  0
LINE
  8
0
 10
-17.3251
 20
-85.685
 11
-17.3249
 21
-85.6848
  0
LINE
  8
0
 10
-17.3249
 20
-85.6848
 11
-13.75
 21
-82.1646
  0
LINE
  8
0
 10
-13.75
 20
-82.1646
 11
-12.6497
 21
-81.5516
  0
LINE
  8
0
 10
-12.6497
 20
-81.5516
 11
-4.14724
 21
-76.8144
  0
LINE
  8
0
 10
-4.14724
 20
-76.8144
 11
-0.0102522
 21
-76.7451
  0
LINE
  8
0
 10
-0.0102522
 20
-76.7451
 11
1.34492
 21
-76.7223
  0
LINE
  8
0
 10
1.34492
 20
-76.7223
 11
1.70488
 21
-78.2994
  0
LINE
  8
0
 10
1.70488
 20
-78.2994
 11
1.71264
 21
-78.3334
  0
LINE
  8
0
 10
1.71264
 20
-78.3334
 11
1.73436
 21
-78.3606
  0
LINE
  8
0
 10
1.73436
 20
-78.3606
 11
2.89276
 21
-79.8132
  0
LINE
  8
0
 10
2.89276
 20
-79.8132
 11
4.56669
 21
-80.6193
  0
LINE
  8
0
 10
4.56669
 20
-80.6193
 11
4.59809
 21
-80.6345
  0
LINE
  8
0
 10
4.59809
 20
-80.6345
 11
6.49086
 21
-80.6345
  0
LINE
  8
0
 10
6.49086
 20
-80.6345
 11
6.52226
 21
-80.6193
  0
LINE
  8
0
 10
6.52226
 20
-80.6193
 11
8.19619
 21
-79.8132
  0
LINE
  8
0
 10
8.19619
 20
-79.8132
 11
9.35458
 21
-78.3606
  0
LINE
  8
0
 10
9.35458
 20
-78.3606
 11
9.37631
 21
-78.3334
  0
LINE
  8
0
 10
9.37631
 20
-78.3334
 11
9.38407
 21
-78.2994
  0
LINE
  8
0
 10
9.38407
 20
-78.2994
 11
9.77629
 21
-76.581
  0
LINE
  8
0
 10
9.77629
 20
-76.581
 11
17.5009
 21
-76.4515
  0
LINE
  8
0
 10
17.5009
 20
-76.4515
 11
22.0557
 21
-76.4515
  0
LINE
  8
0
 10
22.0557
 20
-76.4515
 11
22.1836
 21
-76.4515
  0
LINE
  8
0
 10
22.1836
 20
-76.4515
 11
39.1376
 21
-76.4515
  0
LINE
  8
0
 10
39.1376
 20
-76.4515
 11
41.1375
 21
-73.6167
  0
LINE
  8
0
 10
41.1375
 20
-73.6167
 11
44.9805
 21
-68.1693
  0
LINE
  8
0
 10
44.9805
 20
-68.1693
 11
50.9209
 21
-68.1693
  0
LINE
  8
0
 10
50.9209
 20
-68.1693
 11
58.0587
 21
-68.6065
  0
LINE
  8
0
 10
58.0587
 20
-68.6065
 11
62.105
 21
-68.8543
  0
LINE
  8
0
 10
62.105
 20
-68.8543
 11
62.2902
 21
-68.8358
  0
LINE
  8
0
 10
62.2902
 20
-68.8358
 11
62.301
 21
-68.8348
  0
LINE
  8
0
 10
62.301
 20
-68.8348
 11
73.1306
 21
-67.7566
  0
LINE
  8
0
 10
73.1306
 20
-67.7566
 11
79.4777
 21
-67.1248
  0
LINE
  8
0
 10
79.4777
 20
-67.1248
 11
79.665
 21
-67.1061
  0
LINE
  8
0
 10
79.665
 20
-67.1061
 11
83.8457
 21
-62.3325
  0
LINE
  8
0
 10
83.8457
 20
-62.3325
 11
89.0715
 21
-56.3654
  0
LINE
  8
0
 10
89.0715
 20
-56.3654
 11
89.0345
 21
-55.6467
  0
LINE
  8
0
 10
89.0345
 20
-55.6467
 11
89.0049
 21
-55.0717
  0
LINE
  8
0
 10
89.0049
 20
-55.0717
 11
88.9746
 21
-54.7893
  0
LINE
  8
0
 10
88.9746
 20
-54.7893
 11
88.9746
 21
-54.7893
  0
LINE
  8
0
 10
88.9746
 20
-54.7893
 11
88.9746
 21
-54.7893
  0
LINE
  8
0
 10
88.9746
 20
-54.7893
 11
88.1072
 21
-46.6979
  0
LINE
  8
0
 10
88.1072
 20
-46.6979
 11
87.3558
 21
-39.6891
  0
LINE
  8
0
 10
87.3558
 20
-39.6891
 11
87.3558
 21
-39.6891
  0
LINE
  8
0
 10
87.3558
 20
-39.6891
 11
87.0941
 21
-35.9153
  0
LINE
  8
0
 10
87.0941
 20
-35.9153
 11
87.0941
 21
-35.9151
  0
LINE
  8
0
 10
87.0941
 20
-35.9151
 11
86.8222
 21
-31.9947
  0
LINE
  8
0
 10
86.8222
 20
-31.9947
 11
86.4733
 21
-21.7559
  0
LINE
  8
0
 10
86.4733
 20
-21.7559
 11
86.4733
 21
-21.7555
  0
LINE
  8
0
 10
86.4733
 20
-21.7555
 11
86.2841
 21
-16.2026
  0
LINE
  8
0
 10
86.2841
 20
-16.2026
 11
86.2841
 21
-7.79744
  0
LINE
  8
0
 10
86.2841
 20
-7.79744
 11
86.4733
 21
-2.24445
  0
LINE
  8
0
 10
86.4733
 20
-2.24445
 11
86.4733
 21
-2.24409
  0
LINE
  8
0
 10
86.4733
 20
-2.24409
 11
86.4906
 21
-1.73706
  0
LINE
  8
0
 10
86.4906
 20
-1.73706
 11
86.8701
 21
-1.2612
  0
LINE
  8
0
 10
86.8701
 20
-1.2612
 11
86.8918
 21
-1.23396
  0
LINE
  8
0
 10
86.8918
 20
-1.23396
 11
86.8995
 21
-1.19999
  0
LINE
  8
0
 10
86.8995
 20
-1.19999
 11
87.313
 21
0.611356
  0
LINE
  8
0
 10
87.313
 20
0.611356
 11
86.8995
 21
2.4227
  0
LINE
  8
0
 10
86.8995
 20
2.4227
 11
86.8918
 21
2.45667
  0
LINE
  8
0
 10
86.8918
 20
2.45667
 11
86.8701
 21
2.48392
  0
LINE
  8
0
 10
86.8701
 20
2.48392
 11
86.6441
 21
2.76731
  0
LINE
  8
0
 10
86.6441
 20
2.76731
 11
86.8222
 21
7.99471
  0
LINE
  8
0
 10
86.8222
 20
7.99471
 11
87.0941
 21
11.9151
  0
LINE
  8
0
 10
87.0941
 20
11.9151
 11
87.0941
 21
11.9153
  0
LINE
  8
0
 10
87.0941
 20
11.9153
 11
87.3558
 21
15.6891
  0
LINE
  8
0
 10
87.3558
 20
15.6891
 11
87.3558
 21
15.6891
  0
LINE
  8
0
 10
87.3558
 20
15.6891
 11
88.1072
 21
22.6979
  0
LINE
  8
0
 10
88.1072
 20
22.6979
 11
88.9746
 21
30.7893
  0
LINE
  8
0
 10
88.9746
 20
30.7893
 11
88.9746
 21
30.7893
  0
LINE
  8
0
 10
88.9746
 20
30.7893
 11
88.9746
 21
30.7893
  0
LINE
  8
0
 10
88.9746
 20
30.7893
 11
89.0049
 21
31.0717
  0
LINE
  8
0
 10
89.0049
 20
31.0717
 11
89.0345
 21
31.6467
  0
LINE
  8
0
 10
89.0345
 20
31.6467
 11
89.0715
 21
32.3654
  0
LINE
  8
0
 10
89.0715
 20
32.3654
 11
83.8457
 21
38.3325
  0
LINE
  8
0
 10
83.8457
 20
38.3325
 11
79.665
 21
43.1061
  0
LINE
  8
0
 10
79.665
 20
43.1061
 11
79.4777
 21
43.1248
  0
LINE
  8
0
 10
79.4777
 20
43.1248
 11
73.1306
 21
43.7566
  0
LINE
  8
0
 10
73.1306
 20
43.7566
 11
62.301
 21
44.8348
  0
LINE
  8
0
 10
62.301
 20
44.8348
 11
62.2902
 21
44.8358
  0
LINE
  8
0
 10
62.2902
 20
44.8358
 11
62.105
 21
44.8543
  0
LINE
  8
0
 10
62.105
 20
44.8543
 11
58.0587
 21
44.6065
  0
LINE
  8
0
 10
58.0587
 20
44.6065
 11
50.9209
 21
44.1693
  0
LINE
  8
0
 10
50.9209
 20
44.1693
 11
40.552
 21
44.1693
  0
LINE
  8
0
 10
40.552
 20
44.1693
 11
40.3486
 21
44.1693
  0
LINE
  8
0
 10
40.3486
 20
44.1693
 11
35.0846
 21
44.1693
  0
LINE
  8
0
 10
35.0846
 20
44.1693
 11
33.9439
 21
46.7565
  0
LINE
  8
0
 10
33.9439
 20
46.7565
 11
30.3845
 21
54.8299
  0
LINE
  8
0
 10
30.3845
 20
54.8299
 11
30.0798
 21
55.3175
  0
LINE
  8
0
 10
30.0798
 20
55.3175
 11
29.5476
 21
56.1693
  0
LINE
  8
0
 10
29.5476
 20
56.1693
 11
23.4344
 21
56.1693
  0
LINE
  8
0
 10
23.4344
 20
56.1693
 11
23.2088
 21
56.4522
  0
LINE
  8
0
 10
23.2088
 20
56.4522
 11
21.5348
 21
57.2583
  0
LINE
  8
0
 10
21.5348
 20
57.2583
 11
21.5034
 21
57.2734
  0
LINE
  8
0
 10
21.5034
 20
57.2734
 11
19.6107
 21
57.2734
  0
LINE
  8
0
 10
19.6107
 20
57.2734
 11
19.5793
 21
57.2583
  0
LINE
  8
0
 10
19.5793
 20
57.2583
 11
17.9053
 21
56.4522
  0
LINE
  8
0
 10
17.9053
 20
56.4522
 11
17.6797
 21
56.1693
  0
LINE
  8
0
 10
17.6797
 20
56.1693
 11
12.9819
 21
56.1693
  0
LINE
  8
0
 10
12.9819
 20
56.1693
 11
10.0062
 21
58.1042
  0
LINE
  8
0
 10
10.0062
 20
58.1042
 11
8.64516
 21
58.9893
  0
LINE
  8
0
 10
8.64516
 20
58.9893
 11
-2.29021
 21
58.9893
  0
LINE
  8
0
 10
-2.29021
 20
58.9893
 11
-8.25381
 21
58.9893
  0
LINE
  8
0
 10
-8.25381
 20
58.9893
 11
-8.40341
 21
58.9893
  0
LINE
  8
0
 10
-8.40341
 20
58.9893
 11
-9.82343
 21
58.4202
  0
LINE
  8
0
 10
-9.82343
 20
58.4202
 11
-14.2702
 21
56.6382
  0
LINE
  8
0
 10
-14.2702
 20
56.6382
 11
-25.9664
 21
55.7838
  0
LINE
  8
0
 10
-25.9664
 20
55.7838
 11
-29.4172
 21
55.5318
  0
LINE
  8
0
 10
-29.4172
 20
55.5318
 11
-30.8168
 21
56.4343
  0
LINE
  8
0
 10
-30.8168
 20
56.4343
 11
-30.8168
 21
56.4344
  0
LINE
  8
0
 10
-30.8168
 20
56.4344
 11
-31.1844
 21
56.6714
  0
LINE
  8
0
 10
-31.1844
 20
56.6714
 11
-31.1844
 21
56.6714
  0
LINE
  8
0
 10
-31.1844
 20
56.6714
 11
-31.2757
 21
56.6647
  0
LINE
  8
0
 10
-31.2757
 20
56.6647
 11
-31.2769
 21
56.6647
  0
LINE
  8
0
 10
-31.2769
 20
56.6647
 11
-44.0049
 21
55.7349
  0
LINE
  8
0
 10
-44.0049
 20
55.7349
 11
-47.2411
 21
55.4985
  0
LINE
  8
0
 10
-47.2411
 20
55.4985
 11
-48.3852
 21
54.5705
  0
LINE
  8
0
 10
-48.3852
 20
54.5705
 11
-52.6845
 21
51.0832
  0
LINE
  8
0
 10
-52.6845
 20
51.0832
 11
-63.1845
 21
40.5832
  0
LINE
  8
0
 10
-63.1845
 20
40.5832
 11
-63.6161
 21
36.5573
  0
LINE
  8
0
 10
-63.6161
 20
36.5573
 11
-64.7302
 21
36.5573
  0
LINE
  8
0
 10
-64.7302
 20
36.5573
 11
-64.7616
 21
36.5422
  0
LINE
  8
0
 10
-64.7616
 20
36.5422
 11
-66.4355
 21
35.7361
  0
LINE
  8
0
 10
-66.4355
 20
35.7361
 11
-67.5939
 21
34.2835
  0
LINE
  8
0
 10
-67.5939
 20
34.2835
 11
-67.6156
 21
34.2562
  0
LINE
  8
0
 10
-67.6156
 20
34.2562
 11
-67.6234
 21
34.2223
  0
LINE
  8
0
 10
-67.6234
 20
34.2223
 11
-68.0368
 21
32.4109
  0
LINE
  8
0
 10
-68.0368
 20
32.4109
 11
-67.6234
 21
30.5996
  0
LINE
  8
0
 10
-67.6234
 20
30.5996
 11
-67.6156
 21
30.5656
  0
LINE
  8
0
 10
-67.6156
 20
30.5656
 11
-67.5939
 21
30.5384
  0
LINE
  8
0
 10
-67.5939
 20
30.5384
 11
-66.4355
 21
29.0858
  0
LINE
  8
0
 10
-66.4355
 20
29.0858
 11
-64.7616
 21
28.2797
  0
LINE
  8
0
 10
-64.7616
 20
28.2797
 11
-64.7302
 21
28.2645
  0
LINE
  8
0
 10
-64.7302
 20
28.2645
 11
-64.5051
 21
28.2645
  0
LINE
  8
0
 10
-64.5051
 20
28.2645
 11
-64.5261
 21
28.0688
  0
LINE
  8
0
 10
-64.5261
 20
28.0688
 11
-64.8831
 21
24.7387
  0
LINE
  8
0
 10
-64.8831
 20
24.7387
 11
-65.1423
 21
21.0006
  0
LINE
  8
0
 10
-65.1423
 20
21.0006
 11
-65.2252
 21
19.8064
  0
LINE
  8
0
 10
-65.2252
 20
19.8064
 11
-65.378
 21
15.3198
  0
LINE
  8
0
 10
-65.378
 20
15.3198
 11
-65.8045
 21
2.80312
  0
LINE
  8
0
 10
-65.8045
 20
2.80312
 11
-65.8045
 21
-2.80312
  0
LINE
  8
0
 10
-65.8045
 20
-2.80312
 11
-65.378
 21
-15.3198
  0
LINE
  8
0
 10
-65.378
 20
-15.3198
 11
-65.2252
 21
-19.8064
  0
LINE
  8
0
 10
-65.2252
 20
-19.8064
 11
-65.1423
 21
-21.0006
  0
LINE
  8
0
 10
-65.1423
 20
-21.0006
 11
-64.8831
 21
-24.7387
  0
LINE
  8
0
 10
-64.8831
 20
-24.7387
 11
-64.5261
 21
-28.0688
  0
LINE
  8
0
 10
-64.5261
 20
-28.0688
 11
-63.4315
 21
-38.2789
  0
LINE
  8
0
 10
-63.4315
 20
-38.2789
 11
-64.839
 21
-39.2671
  0
LINE
  8
0
 10
-64.839
 20
-39.2671
 11
-68.7527
 21
-42.0149
  0
LINE
  8
0
 10
-68.7527
 20
-42.0149
 11
-68.9054
 21
-42.122
  0
LINE
  8
0
 10
-68.9054
 20
-42.122
 11
-68.9054
 21
-42.122
  0
LINE
  8
0
 10
-68.9054
 20
-42.122
 11
-69.0424
 21
-42.2182
  0
LINE
  8
0
 10
-69.0424
 20
-42.2182
 11
-69.8679
 21
-43.0607
  0
LINE
  8
0
 10
-69.8679
 20
-43.0607
 11
-70.7875
 21
-43.9992
  0
LINE
  8
0
 10
-70.7875
 20
-43.9992
 11
-68.3914
 21
-50.0982
  0
LINE
  8
0
 10
-68.3914
 20
-50.0982
 11
-67.0376
 21
-53.5443
  0
LINE
  8
0
 10
-67.0376
 20
-53.5443
 11
-70.7729
 21
-57.8864
  0
LINE
  8
0
 10
-70.7729
 20
-57.8864
 11
-73.4021
 21
-63.2985
  0
LINE
  8
0
 10
-73.4021
 20
-63.2985
 11
-76.3659
 21
-69.3994
  0
LINE
  8
0
 10
-76.3659
 20
-69.3994
 11
-76.5559
 21
-69.7906
  0
LINE
  8
0
 10
-72.3422
 20
-72.4845
 11
-64.6514
 21
-57.4355
  0
LINE
  8
0
 10
-64.6514
 20
-57.4355
 11
-64.3908
 21
-57.1326
  0
LINE
  8
0
 10
-64.3908
 20
-57.1326
 11
-64.3721
 21
-57.1108
  0
LINE
  8
0
 10
-64.3721
 20
-57.1108
 11
-62.7836
 21
-55.2643
  0
LINE
  8
0
 10
-62.7836
 20
-55.2643
 11
-61.9004
 21
-55.6896
  0
LINE
  8
0
 10
-61.9004
 20
-55.6896
 11
-61.869
 21
-55.7047
  0
LINE
  8
0
 10
-61.869
 20
-55.7047
 11
-59.9762
 21
-55.7047
  0
LINE
  8
0
 10
-59.9762
 20
-55.7047
 11
-59.9448
 21
-55.6896
  0
LINE
  8
0
 10
-59.9448
 20
-55.6896
 11
-58.2709
 21
-54.8835
  0
LINE
  8
0
 10
-58.2709
 20
-54.8835
 11
-57.1125
 21
-53.4309
  0
LINE
  8
0
 10
-57.1125
 20
-53.4309
 11
-57.0908
 21
-53.4037
  0
LINE
  8
0
 10
-57.0908
 20
-53.4037
 11
-57.083
 21
-53.3697
  0
LINE
  8
0
 10
-57.083
 20
-53.3697
 11
-56.6696
 21
-51.5583
  0
LINE
  8
0
 10
-56.6696
 20
-51.5583
 11
-57.083
 21
-49.747
  0
LINE
  8
0
 10
-57.083
 20
-49.747
 11
-57.0908
 21
-49.713
  0
LINE
  8
0
 10
-57.0908
 20
-49.713
 11
-57.1125
 21
-49.6858
  0
LINE
  8
0
 10
-57.1125
 20
-49.6858
 11
-58.2709
 21
-48.2332
  0
LINE
  8
0
 10
-58.2709
 20
-48.2332
 11
-59.9448
 21
-47.4271
  0
LINE
  8
0
 10
-59.9448
 20
-47.4271
 11
-59.9762
 21
-47.412
  0
LINE
  8
0
 10
-59.9762
 20
-47.412
 11
-61.869
 21
-47.412
  0
LINE
  8
0
 10
-61.869
 20
-47.412
 11
-61.9004
 21
-47.4271
  0
LINE
  8
0
 10
-61.9004
 20
-47.4271
 11
-63.5743
 21
-48.2332
  0
LINE
  8
0
 10
-63.5743
 20
-48.2332
 11
-64.3684
 21
-49.229
  0
LINE
  8
0
 10
-64.3684
 20
-49.229
 11
-65.9891
 21
-45.4763
  0
LINE
  8
0
 10
-65.9891
 20
-45.4763
 11
-63.6327
 21
-43.8219
  0
LINE
  8
0
 10
-63.6327
 20
-43.8219
 11
-59.4901
 21
-40.9134
  0
LINE
  8
0
 10
-59.4901
 20
-40.9134
 11
-59.3994
 21
-40.8497
  0
LINE
  8
0
 10
-59.3994
 20
-40.8497
 11
-59.2005
 21
-40.7101
  0
LINE
  8
0
 10
-59.2005
 20
-40.7101
 11
-58.0021
 21
-39.4871
  0
LINE
  8
0
 10
-58.0021
 20
-39.4871
 11
-57.4554
 21
-38.9291
  0
LINE
  8
0
 10
-57.4554
 20
-38.9291
 11
-57.4554
 21
-38.9291
  0
LINE
  8
0
 10
-57.4554
 20
-38.9291
 11
-57.6685
 21
-38.6784
  0
LINE
  8
0
 10
-57.6685
 20
-38.6784
 11
-57.7778
 21
-38.5498
  0
LINE
  8
0
 10
-57.7778
 20
-38.5498
 11
-58.7618
 21
-37.7845
  0
LINE
  8
0
 10
-58.7618
 20
-37.7845
 11
-59.4918
 21
-37.2167
  0
LINE
  8
0
 10
-59.4918
 20
-37.2167
 11
-59.5639
 21
-36.5442
  0
LINE
  8
0
 10
-59.5639
 20
-36.5442
 11
-60.8831
 21
-24.2386
  0
LINE
  8
0
 10
-60.8831
 20
-24.2386
 11
-60.9617
 21
-23.105
  0
LINE
  8
0
 10
-60.9617
 20
-23.105
 11
-61.2252
 21
-19.3064
  0
LINE
  8
0
 10
-61.2252
 20
-19.3064
 11
-61.6714
 21
-6.21124
  0
LINE
  8
0
 10
-61.6714
 20
-6.21124
 11
-61.8045
 21
-2.30312
  0
LINE
  8
0
 10
-61.8045
 20
-2.30312
 11
-61.8045
 21
2.30312
  0
LINE
  8
0
 10
-61.8045
 20
2.30312
 11
-61.6714
 21
6.21124
  0
LINE
  8
0
 10
-61.6714
 20
6.21124
 11
-61.2252
 21
19.3064
  0
LINE
  8
0
 10
-61.2252
 20
19.3064
 11
-60.9617
 21
23.105
  0
LINE
  8
0
 10
-60.9617
 20
23.105
 11
-60.8831
 21
24.2386
  0
LINE
  8
0
 10
-60.8831
 20
24.2386
 11
-60.2441
 21
30.1993
  0
LINE
  8
0
 10
-60.2441
 20
30.1993
 11
-59.9737
 21
30.5384
  0
LINE
  8
0
 10
-59.9737
 20
30.5384
 11
-59.952
 21
30.5656
  0
LINE
  8
0
 10
-59.952
 20
30.5656
 11
-59.9442
 21
30.5996
  0
LINE
  8
0
 10
-59.9442
 20
30.5996
 11
-59.5308
 21
32.4109
  0
LINE
  8
0
 10
-59.5308
 20
32.4109
 11
-59.8548
 21
33.8305
  0
LINE
  8
0
 10
-59.8548
 20
33.8305
 11
-59.5639
 21
36.5442
  0
LINE
  8
0
 10
-59.5639
 20
36.5442
 11
-59.1845
 21
40.0832
  0
LINE
  8
0
 10
-59.1845
 20
40.0832
 11
-52.1845
 21
47.0832
  0
LINE
  8
0
 10
-52.1845
 20
47.0832
 11
-47.0275
 21
49.8445
  0
LINE
  8
0
 10
-47.0275
 20
49.8445
 11
-45.7712
 21
50.5172
  0
LINE
  8
0
 10
-45.7712
 20
50.5172
 11
-32.9278
 21
51.4553
  0
LINE
  8
0
 10
-32.9278
 20
51.4553
 11
-30.6242
 21
51.6236
  0
LINE
  8
0
 10
-30.6242
 20
51.6236
 11
-29.2018
 21
50.7064
  0
LINE
  8
0
 10
-29.2018
 20
50.7064
 11
-29.2018
 21
50.7063
  0
LINE
  8
0
 10
-29.2018
 20
50.7063
 11
-28.857
 21
50.484
  0
LINE
  8
0
 10
-28.857
 20
50.484
 11
-16.0307
 21
51.4209
  0
LINE
  8
0
 10
-16.0307
 20
51.4209
 11
-12.8002
 21
51.6568
  0
LINE
  8
0
 10
-12.8002
 20
51.6568
 11
-11.2314
 21
52.3343
  0
LINE
  8
0
 10
-11.2314
 20
52.3343
 11
-7.47972
 21
53.9544
  0
LINE
  8
0
 10
-7.47972
 20
53.9544
 11
4.07779
 21
53.9544
  0
LINE
  8
0
 10
4.07779
 20
53.9544
 11
8.60293
 21
53.9544
  0
LINE
  8
0
 10
8.60293
 20
53.9544
 11
11.4769
 21
52.0856
  0
LINE
  8
0
 10
11.4769
 20
52.0856
 11
12.9397
 21
51.1344
  0
LINE
  8
0
 10
12.9397
 20
51.1344
 11
16.8427
 21
51.1344
  0
LINE
  8
0
 10
16.8427
 20
51.1344
 11
17.9053
 21
49.8019
  0
LINE
  8
0
 10
17.9053
 20
49.8019
 11
19.5793
 21
48.9958
  0
LINE
  8
0
 10
19.5793
 20
48.9958
 11
19.6107
 21
48.9807
  0
LINE
  8
0
 10
19.6107
 20
48.9807
 11
21.5034
 21
48.9807
  0
LINE
  8
0
 10
21.5034
 20
48.9807
 11
21.5348
 21
48.9958
  0
LINE
  8
0
 10
21.5348
 20
48.9958
 11
23.2088
 21
49.8019
  0
LINE
  8
0
 10
23.2088
 20
49.8019
 11
24.2714
 21
51.1344
  0
LINE
  8
0
 10
24.2714
 20
51.1344
 11
24.9176
 21
51.1344
  0
LINE
  8
0
 10
24.9176
 20
51.1344
 11
29.2589
 21
51.1344
  0
LINE
  8
0
 10
29.2589
 20
51.1344
 11
31.9346
 21
45.0655
  0
LINE
  8
0
 10
31.9346
 20
45.0655
 11
33.9591
 21
40.4738
  0
LINE
  8
0
 10
33.9591
 20
40.4738
 11
34.5223
 21
39.5725
  0
LINE
  8
0
 10
34.5223
 20
39.5725
 11
34.796
 21
39.1344
  0
LINE
  8
0
 10
34.796
 20
39.1344
 11
46.7806
 21
39.1344
  0
LINE
  8
0
 10
46.7806
 20
39.1344
 11
51.6796
 21
39.1344
  0
LINE
  8
0
 10
51.6796
 20
39.1344
 11
51.6796
 21
39.1344
  0
LINE
  8
0
 10
51.6796
 20
39.1344
 11
51.8446
 21
39.1344
  0
LINE
  8
0
 10
51.8446
 20
39.1344
 11
55.4416
 21
39.3723
  0
LINE
  8
0
 10
55.4416
 20
39.3723
 11
62.1397
 21
39.8155
  0
LINE
  8
0
 10
62.1397
 20
39.8155
 11
68.1693
 21
39.2152
  0
LINE
  8
0
 10
68.1693
 20
39.2152
 11
78.7048
 21
38.1664
  0
LINE
  8
0
 10
78.7048
 20
38.1664
 11
78.7048
 21
38.1664
  0
LINE
  8
0
 10
78.7048
 20
38.1664
 11
82.7604
 21
33.5355
  0
LINE
  8
0
 10
82.7604
 20
33.5355
 11
84.9115
 21
31.0792
  0
LINE
  8
0
 10
84.9115
 20
31.0792
 11
84.0306
 21
22.8621
  0
LINE
  8
0
 10
84.0306
 20
22.8621
 11
83.3933
 21
16.9171
  0
LINE
  8
0
 10
83.3933
 20
16.9171
 11
83.1829
 21
13.8831
  0
LINE
  8
0
 10
83.1829
 20
13.8831
 11
82.8489
 21
9.06684
  0
LINE
  8
0
 10
82.8489
 20
9.06684
 11
82.8438
 21
8.91809
  0
LINE
  8
0
 10
82.8438
 20
8.91809
 11
82.832
 21
8.57112
  0
LINE
  8
0
 10
82.832
 20
8.57112
 11
82.832
 21
8.57112
  0
LINE
  8
0
 10
82.832
 20
8.57112
 11
82.702
 21
4.75774
  0
LINE
  8
0
 10
82.702
 20
4.75774
 11
82.1136
 21
4.75774
  0
LINE
  8
0
 10
82.1136
 20
4.75774
 11
82.0822
 21
4.74262
  0
LINE
  8
0
 10
82.0822
 20
4.74262
 11
80.4082
 21
3.9365
  0
LINE
  8
0
 10
80.4082
 20
3.9365
 11
79.2498
 21
2.48392
  0
LINE
  8
0
 10
79.2498
 20
2.48392
 11
79.2281
 21
2.45667
  0
LINE
  8
0
 10
79.2281
 20
2.45667
 11
79.2204
 21
2.4227
  0
LINE
  8
0
 10
79.2204
 20
2.4227
 11
78.8069
 21
0.611356
  0
LINE
  8
0
 10
78.8069
 20
0.611356
 11
79.2204
 21
-1.19999
  0
LINE
  8
0
 10
79.2204
 20
-1.19999
 11
79.2281
 21
-1.23396
  0
LINE
  8
0
 10
79.2281
 20
-1.23396
 11
79.2498
 21
-1.2612
  0
LINE
  8
0
 10
79.2498
 20
-1.2612
 11
80.4082
 21
-2.71379
  0
LINE
  8
0
 10
80.4082
 20
-2.71379
 11
82.0822
 21
-3.51991
  0
LINE
  8
0
 10
82.0822
 20
-3.51991
 11
82.1136
 21
-3.53503
  0
LINE
  8
0
 10
82.1136
 20
-3.53503
 11
82.4195
 21
-3.53503
  0
LINE
  8
0
 10
82.4195
 20
-3.53503
 11
82.3689
 21
-5.01936
  0
LINE
  8
0
 10
82.3689
 20
-5.01936
 11
82.2695
 21
-7.93643
  0
LINE
  8
0
 10
82.2695
 20
-7.93643
 11
82.2682
 21
-8.01441
  0
LINE
  8
0
 10
82.2682
 20
-8.01441
 11
82.262
 21
-8.3777
  0
LINE
  8
0
 10
82.262
 20
-8.3777
 11
82.262
 21
-15.6223
  0
LINE
  8
0
 10
82.262
 20
-15.6223
 11
82.2682
 21
-15.9856
  0
LINE
  8
0
 10
82.2682
 20
-15.9856
 11
82.2695
 21
-16.0636
  0
LINE
  8
0
 10
82.2695
 20
-16.0636
 11
82.3689
 21
-18.9806
  0
LINE
  8
0
 10
82.3689
 20
-18.9806
 11
82.832
 21
-32.5711
  0
LINE
  8
0
 10
82.832
 20
-32.5711
 11
82.832
 21
-32.5711
  0
LINE
  8
0
 10
82.832
 20
-32.5711
 11
82.8438
 21
-32.9181
  0
LINE
  8
0
 10
82.8438
 20
-32.9181
 11
82.8489
 21
-33.0668
  0
LINE
  8
0
 10
82.8489
 20
-33.0668
 11
83.1829
 21
-37.8831
  0
LINE
  8
0
 10
83.1829
 20
-37.8831
 11
83.3933
 21
-40.9171
  0
LINE
  8
0
 10
83.3933
 20
-40.9171
 11
84.0306
 21
-46.8621
  0
LINE
  8
0
 10
84.0306
 20
-46.8621
 11
84.9115
 21
-55.0792
  0
LINE
  8
0
 10
84.9115
 20
-55.0792
 11
82.7604
 21
-57.5355
  0
LINE
  8
0
 10
82.7604
 20
-57.5355
 11
78.7048
 21
-62.1664
  0
LINE
  8
0
 10
78.7048
 20
-62.1664
 11
78.7048
 21
-62.1664
  0
LINE
  8
0
 10
78.7048
 20
-62.1664
 11
68.1693
 21
-63.2152
  0
LINE
  8
0
 10
68.1693
 20
-63.2152
 11
62.1397
 21
-63.8155
  0
LINE
  8
0
 10
62.1397
 20
-63.8155
 11
55.4416
 21
-63.3723
  0
LINE
  8
0
 10
55.4416
 20
-63.3723
 11
51.8446
 21
-63.1344
  0
LINE
  8
0
 10
51.8446
 20
-63.1344
 11
51.6796
 21
-63.1344
  0
LINE
  8
0
 10
51.6796
 20
-63.1344
 11
51.6796
 21
-63.1344
  0
LINE
  8
0
 10
51.6796
 20
-63.1344
 11
46.7806
 21
-63.1344
  0
LINE
  8
0
 10
46.7806
 20
-63.1344
 11
34.796
 21
-63.1344
  0
LINE
  8
0
 10
34.796
 20
-63.1344
 11
34.5223
 21
-63.5725
  0
LINE
  8
0
 10
34.5223
 20
-63.5725
 11
33.9591
 21
-64.4738
  0
LINE
  8
0
 10
33.9591
 20
-64.4738
 11
33.9752
 21
-64.624
  0
LINE
  8
0
 10
33.9752
 20
-64.624
 11
34.0827
 21
-65.6273
  0
LINE
  8
0
 10
34.0827
 20
-65.6273
 11
34.3212
 21
-67.8515
  0
LINE
  8
0
 10
34.3212
 20
-67.8515
 11
34.3212
 21
-67.8515
  0
LINE
  8
0
 10
34.3212
 20
-67.8515
 11
34.3553
 21
-68.1693
  0
LINE
  8
0
 10
34.3553
 20
-68.1693
 11
34.5066
 21
-68.1693
  0
LINE
  8
0
 10
34.5066
 20
-68.1693
 11
38.6895
 21
-68.1693
  0
LINE
  8
0
 10
38.6895
 20
-68.1693
 11
38.3272
 21
-68.8285
  0
LINE
  8
0
 10
38.3272
 20
-68.8285
 11
37.0527
 21
-71.1474
  0
LINE
  8
0
 10
37.0527
 20
-71.1474
 11
33.3681
 21
-71.1474
  0
LINE
  8
0
 10
33.3681
 20
-71.1474
 11
17.1063
 21
-71.1474
  0
LINE
  8
0
 10
17.1063
 20
-71.1474
 11
12.3474
 21
-71.318
  0
LINE
  8
0
 10
12.3474
 20
-71.318
 11
-3.19638
 21
-71.8751
  0
LINE
  8
0
 10
-3.19638
 20
-71.8751
 11
-3.51859
 21
-71.8874
  0
LINE
  8
0
 10
-3.51859
 20
-71.8874
 11
-3.61724
 21
-71.8911
  0
LINE
  8
0
 10
-3.61724
 20
-71.8911
 11
-7.42244
 21
-73.9301
  0
LINE
  8
0
 10
-7.42244
 20
-73.9301
 11
-7.42269
 21
-73.9303
  0
LINE
  8
0
 10
-7.42269
 20
-73.9303
 11
-15.3751
 21
-78.1916
  0
LINE
  8
0
 10
-15.3751
 20
-78.1916
 11
-16.7578
 21
-79.1551
  0
LINE
  8
0
 10
-16.7578
 20
-79.1551
 11
-16.7579
 21
-79.1551
  0
LINE
  8
0
 10
-16.7579
 20
-79.1551
 11
-17.4195
 21
-79.6161
  0
LINE
  8
0
 10
-17.4195
 20
-79.6161
 11
-21.4721
 21
-83.6066
  0
LINE
  8
0
 10
-21.4721
 20
-83.6066
 11
-21.4723
 21
-83.6068
  0
LINE
  8
0
 10
-21.4723
 20
-83.6068
 11
-26.0634
 21
-88.1275
  0
LINE
  8
0
 10
-26.0634
 20
-88.1275
 11
-26.1835
 21
-88.2458
  0
LINE
  8
0
 10
-26.1835
 20
-88.2458
 11
-26.3154
 21
-88.3757
  0
LINE
  8
0
 10
-26.3154
 20
-88.3757
 11
-25.8587
 21
-90.7689
  0
LINE
  8
0
 10
-25.8587
 20
-90.7689
 11
-25.4428
 21
-92.9488
  0
LINE
  8
0
 10
-25.4428
 20
-92.9488
 11
-29.853
 21
-98.5251
  0
LINE
  8
0
 10
-29.853
 20
-98.5251
 11
-37.126
 21
-100.852
  0
LINE
  8
0
 10
-37.126
 20
-100.852
 11
-37.126
 21
-100.852
  0
LINE
  8
0
 10
-37.126
 20
-100.852
 11
-42.5758
 21
-100.309
  0
LINE
  8
0
 10
-42.5758
 20
-100.309
 11
-42.5758
 21
-100.309
  0
LINE
  8
0
 10
-42.5758
 20
-100.309
 11
-45.3949
 21
-97.3235
  0
LINE
  8
0
 10
-45.3949
 20
-97.3235
 11
-54.3571
 21
-87.8308
  0
LINE
  8
0
 10
-54.3571
 20
-87.8308
 11
-54.8228
 21
-87.6335
  0
LINE
  8
0
 10
-54.8228
 20
-87.6335
 11
-60.4903
 21
-86.1126
  0
LINE
  8
0
 10
-60.4903
 20
-86.1126
 11
-63.1931
 21
-83.5547
  0
LINE
  8
0
 10
-63.1931
 20
-83.5547
 11
-72.2573
 21
-74.9763
  0
LINE
  8
0
 10
-72.2573
 20
-74.9763
 11
-72.3422
 21
-72.4845
  0
LINE
  8
0
 10
-65.5857
 20
31.5432
 11
-65.5857
 21
33.2787
  0
LINE
  8
0
 10
-65.5857
 20
33.2787
 11
-64.2288
 21
34.3608
  0
LINE
  8
0
 10
-64.2288
 20
34.3608
 11
-62.5368
 21
33.9746
  0
LINE
  8
0
 10
-62.5368
 20
33.9746
 11
-61.7838
 21
32.4109
  0
LINE
  8
0
 10
-61.7838
 20
32.4109
 11
-62.5368
 21
30.8473
  0
LINE
  8
0
 10
-62.5368
 20
30.8473
 11
-64.2288
 21
30.4611
  0
LINE
  8
0
 10
-64.2288
 20
30.4611
 11
-65.5857
 21
31.5432
  0
LINE
  8
0
 10
-62.7245
 20
-52.4261
 11
-62.7245
 21
-50.6906
  0
LINE
  8
0
 10
-62.7245
 20
-50.6906
 11
-61.3676
 21
-49.6085
  0
LINE
  8
0
 10
-61.3676
 20
-49.6085
 11
-59.6756
 21
-49.9947
  0
LINE
  8
0
 10
-59.6756
 20
-49.9947
 11
-58.9226
 21
-51.5583
  0
LINE
  8
0
 10
-58.9226
 20
-51.5583
 11
-59.6756
 21
-53.122
  0
LINE
  8
0
 10
-59.6756
 20
-53.122
 11
-61.3676
 21
-53.5082
  0
LINE
  8
0
 10
-61.3676
 20
-53.5082
 11
-62.7245
 21
-52.4261
  0
LINE
  8
0
 10
3.74254
 20
-77.3558
 11
3.74254
 21
-75.6203
  0
LINE
  8
0
 10
3.74254
 20
-75.6203
 11
5.09943
 21
-74.5382
  0
LINE
  8
0
 10
5.09943
 20
-74.5382
 11
6.79145
 21
-74.9244
  0
LINE
  8
0
 10
6.79145
 20
-74.9244
 11
7.54447
 21
-76.4881
  0
LINE
  8
0
 10
7.54447
 20
-76.4881
 11
6.79145
 21
-78.0517
  0
LINE
  8
0
 10
6.79145
 20
-78.0517
 11
5.09943
 21
-78.4379
  0
LINE
  8
0
 10
5.09943
 20
-78.4379
 11
3.74254
 21
-77.3558
  0
LINE
  8
0
 10
18.7551
 20
52.2593
 11
18.7551
 21
53.9948
  0
LINE
  8
0
 10
18.7551
 20
53.9948
 11
20.112
 21
55.0769
  0
LINE
  8
0
 10
20.112
 20
55.0769
 11
21.804
 21
54.6907
  0
LINE
  8
0
 10
21.804
 20
54.6907
 11
22.557
 21
53.127
  0
LINE
  8
0
 10
22.557
 20
53.127
 11
21.804
 21
51.5634
  0
LINE
  8
0
 10
21.804
 20
51.5634
 11
20.112
 21
51.1772
  0
LINE
  8
0
 10
20.112
 20
51.1772
 11
18.7551
 21
52.2593
  0
LINE
  8
0
 10
81.258
 20
-0.256411
 11
81.258
 21
1.47912
  0
LINE
  8
0
 10
81.258
 20
1.47912
 11
82.6149
 21
2.56121
  0
LINE
  8
0
 10
82.6149
 20
2.56121
 11
84.3069
 21
2.17502
  0
LINE
  8
0
 10
84.3069
 20
2.17502
 11
85.06
 21
0.611356
  0
LINE
  8
0
 10
85.06
 20
0.611356
 11
84.3069
 21
-0.952306
  0
LINE
  8
0
 10
84.3069
 20
-0.952306
 11
82.6149
 21
-1.3385
  0
LINE
  8
0
 10
82.6149
 20
-1.3385
 11
81.258
 21
-0.256411
  0
ENDSEC
  0
SECTION
  2
OBJECTS
  0
DICTIONARY
  0
ENDSEC
  0
EOF
